<svg xmlns="http://www.w3.org/2000/svg" viewBox="0 0 88 96" role="img" aria-labelledby="title desc">
  <title id="title">LIMIAR logo</title>
  <desc id="desc">Map pin with a river cross section and rising water line.</desc>
  <defs>
    <linearGradient id="pinFill" x1="16%" y1="12%" x2="84%" y2="88%">
      <stop offset="0%" stop-color="#2E8B8B" />
      <stop offset="100%" stop-color="#1F5E7A" />
    </linearGradient>
    <linearGradient id="waterFill" x1="0%" y1="0%" x2="0%" y2="100%">
      <stop offset="0%" stop-color="#9FD4DA" stop-opacity="0.92" />
      <stop offset="100%" stop-color="#77B3C1" stop-opacity="0.72" />
    </linearGradient>
  </defs>

  <path
    d="M44 6C28.2 6 15.5 18.7 15.5 34.4c0 18.6 21.2 40.2 25.6 44.7 1.4 1.4 4 1.4 5.4 0 4.4-4.5 25.6-26.1 25.6-44.7C72.5 18.7 59.8 6 44 6Z"
    fill="url(#pinFill)"
    stroke="#103644"
    stroke-width="2"
  />
  <circle cx="44" cy="33.8" r="19.1" fill="#F7F2E7" />

  <path
    d="M28.6 38.6c3.4-4.1 8.8-6.6 15.4-6.6 6.2 0 11.6 2.3 15.2 6.6"
    fill="none"
    stroke="#1F5E7A"
    stroke-width="3.2"
    stroke-linecap="round"
  />
  <path
    d="M27.8 38.5h32.5v8.4c-4.4 1.7-10.2 2.6-16.3 2.6-6.2 0-11.9-.9-16.2-2.6Z"
    fill="url(#waterFill)"
    opacity="0.95"
  />
  <path
    d="M32.2 44.1c3.2 1.2 7.4 1.9 11.8 1.9 4.6 0 8.8-.7 12.1-1.9"
    fill="none"
    stroke="#1F5E7A"
    stroke-width="2"
    stroke-linecap="round"
    opacity="0.85"
  />
  <path
    d="M31 35.5h26"
    fill="none"
    stroke="#C54B3C"
    stroke-width="3.6"
    stroke-linecap="round"
  />
  <path
    d="M55.8 21.5v15.8"
    fill="none"
    stroke="#2E8B8B"
    stroke-width="2.5"
    stroke-linecap="round"
  />
  <path
    d="M52.5 24.8h6.6M53.4 29.4h5.4M52.6 34h6.5"
    fill="none"
    stroke="#D89B2B"
    stroke-width="1.9"
    stroke-linecap="round"
  />
  <path
    d="M58.6 16.9c2.3.2 4.2.9 5.6 2.1-1.2 1.4-3 2.3-5.5 2.5"
    fill="none"
    stroke="#D89B2B"
    stroke-width="1.9"
    stroke-linecap="round"
    stroke-linejoin="round"
  />
</svg>
